<svg xmlns="http://www.w3.org/2000/svg" version="1.1" xmlns:xlink="http://www.w3.org/1999/xlink" xmlns:svgjs="http://svgjs.dev/svgjs" viewBox="0 0 800 800"><g stroke-width="2" stroke="hsla(32, 0%, 100%, 1)" fill="none" stroke-linecap="round" transform="matrix(1,0,0,1,0,24.09663963317871)"><path d="M10,10C21.805555555555557,11.041666666666666,40.97222222222223,19.166666666666668,66.66666666666667,15C92.36111111111111,10.833333333333332,105.55555555555557,-12.708333333333332,133.33333333333334,-10C161.11111111111111,-7.291666666666667,172.22222222222223,26.75,200,28C227.77777777777777,29.25,238.8888888888889,-3.166666666666667,266.6666666666667,-4C294.44444444444446,-4.833333333333333,305.5555555555556,25.041666666666668,333.33333333333337,24C361.11111111111114,22.958333333333332,372.22222222222223,-9.625,400,-9C427.77777777777777,-8.375,438.8888888888889,24.916666666666668,466.6666666666667,27C494.44444444444446,29.083333333333332,505.5555555555556,-1.708333333333333,533.3333333333334,1C561.1111111111111,3.708333333333333,572.2222222222222,38.958333333333336,600,40C627.7777777777778,41.041666666666664,638.8888888888889,6.416666666666667,666.6666666666667,6C694.4444444444446,5.583333333333333,707.6388888888889,37.166666666666664,733.3333333333334,38C759.0277777777778,38.833333333333336,778.1944444444445,15.833333333333334,790,10"></path><path d="M10,10C21.805555555555557,11.041666666666666,40.97222222222223,19.166666666666668,66.66666666666667,15C92.36111111111111,10.833333333333332,105.55555555555557,-12.708333333333332,133.33333333333334,-10C161.11111111111111,-7.291666666666667,172.22222222222223,26.75,200,28C227.77777777777777,29.25,238.8888888888889,-3.166666666666667,266.6666666666667,-4C294.44444444444446,-4.833333333333333,305.5555555555556,25.041666666666668,333.33333333333337,24C361.11111111111114,22.958333333333332,372.22222222222223,-9.625,400,-9C427.77777777777777,-8.375,438.8888888888889,24.916666666666668,466.6666666666667,27C494.44444444444446,29.083333333333332,505.5555555555556,-1.708333333333333,533.3333333333334,1C561.1111111111111,3.708333333333333,572.2222222222222,38.958333333333336,600,40C627.7777777777778,41.041666666666664,638.8888888888889,6.416666666666667,666.6666666666667,6C694.4444444444446,5.583333333333333,707.6388888888889,37.166666666666664,733.3333333333334,38C759.0277777777778,38.833333333333336,778.1944444444445,15.833333333333334,790,10" transform="matrix(1,0,0,1,0,722)"></path><path d="M10,10C21.805555555555557,11.041666666666666,40.97222222222223,19.166666666666668,66.66666666666667,15C92.36111111111111,10.833333333333332,105.55555555555557,-12.708333333333332,133.33333333333334,-10C161.11111111111111,-7.291666666666667,172.22222222222223,26.75,200,28C227.77777777777777,29.25,238.8888888888889,-3.166666666666667,266.6666666666667,-4C294.44444444444446,-4.833333333333333,305.5555555555556,25.041666666666668,333.33333333333337,24C361.11111111111114,22.958333333333332,372.22222222222223,-9.625,400,-9C427.77777777777777,-8.375,438.8888888888889,24.916666666666668,466.6666666666667,27C494.44444444444446,29.083333333333332,505.5555555555556,-1.708333333333333,533.3333333333334,1C561.1111111111111,3.708333333333333,572.2222222222222,38.958333333333336,600,40C627.7777777777778,41.041666666666664,638.8888888888889,6.416666666666667,666.6666666666667,6C694.4444444444446,5.583333333333333,707.6388888888889,37.166666666666664,733.3333333333334,38C759.0277777777778,38.833333333333336,778.1944444444445,15.833333333333334,790,10" transform="matrix(1,0,0,1,0,684)"></path><path d="M10,10C21.805555555555557,11.041666666666666,40.97222222222223,19.166666666666668,66.66666666666667,15C92.36111111111111,10.833333333333332,105.55555555555557,-12.708333333333332,133.33333333333334,-10C161.11111111111111,-7.291666666666667,172.22222222222223,26.75,200,28C227.77777777777777,29.25,238.8888888888889,-3.166666666666667,266.6666666666667,-4C294.44444444444446,-4.833333333333333,305.5555555555556,25.041666666666668,333.33333333333337,24C361.11111111111114,22.958333333333332,372.22222222222223,-9.625,400,-9C427.77777777777777,-8.375,438.8888888888889,24.916666666666668,466.6666666666667,27C494.44444444444446,29.083333333333332,505.5555555555556,-1.708333333333333,533.3333333333334,1C561.1111111111111,3.708333333333333,572.2222222222222,38.958333333333336,600,40C627.7777777777778,41.041666666666664,638.8888888888889,6.416666666666667,666.6666666666667,6C694.4444444444446,5.583333333333333,707.6388888888889,37.166666666666664,733.3333333333334,38C759.0277777777778,38.833333333333336,778.1944444444445,15.833333333333334,790,10" transform="matrix(1,0,0,1,0,646)"></path><path d="M10,10C21.805555555555557,11.041666666666666,40.97222222222223,19.166666666666668,66.66666666666667,15C92.36111111111111,10.833333333333332,105.55555555555557,-12.708333333333332,133.33333333333334,-10C161.11111111111111,-7.291666666666667,172.22222222222223,26.75,200,28C227.77777777777777,29.25,238.8888888888889,-3.166666666666667,266.6666666666667,-4C294.44444444444446,-4.833333333333333,305.5555555555556,25.041666666666668,333.33333333333337,24C361.11111111111114,22.958333333333332,372.22222222222223,-9.625,400,-9C427.77777777777777,-8.375,438.8888888888889,24.916666666666668,466.6666666666667,27C494.44444444444446,29.083333333333332,505.5555555555556,-1.708333333333333,533.3333333333334,1C561.1111111111111,3.708333333333333,572.2222222222222,38.958333333333336,600,40C627.7777777777778,41.041666666666664,638.8888888888889,6.416666666666667,666.6666666666667,6C694.4444444444446,5.583333333333333,707.6388888888889,37.166666666666664,733.3333333333334,38C759.0277777777778,38.833333333333336,778.1944444444445,15.833333333333334,790,10" transform="matrix(1,0,0,1,0,608)"></path><path d="M10,10C21.805555555555557,11.041666666666666,40.97222222222223,19.166666666666668,66.66666666666667,15C92.36111111111111,10.833333333333332,105.55555555555557,-12.708333333333332,133.33333333333334,-10C161.11111111111111,-7.291666666666667,172.22222222222223,26.75,200,28C227.77777777777777,29.25,238.8888888888889,-3.166666666666667,266.6666666666667,-4C294.44444444444446,-4.833333333333333,305.5555555555556,25.041666666666668,333.33333333333337,24C361.11111111111114,22.958333333333332,372.22222222222223,-9.625,400,-9C427.77777777777777,-8.375,438.8888888888889,24.916666666666668,466.6666666666667,27C494.44444444444446,29.083333333333332,505.5555555555556,-1.708333333333333,533.3333333333334,1C561.1111111111111,3.708333333333333,572.2222222222222,38.958333333333336,600,40C627.7777777777778,41.041666666666664,638.8888888888889,6.416666666666667,666.6666666666667,6C694.4444444444446,5.583333333333333,707.6388888888889,37.166666666666664,733.3333333333334,38C759.0277777777778,38.833333333333336,778.1944444444445,15.833333333333334,790,10" transform="matrix(1,0,0,1,0,570)"></path><path d="M10,10C21.805555555555557,11.041666666666666,40.97222222222223,19.166666666666668,66.66666666666667,15C92.36111111111111,10.833333333333332,105.55555555555557,-12.708333333333332,133.33333333333334,-10C161.11111111111111,-7.291666666666667,172.22222222222223,26.75,200,28C227.77777777777777,29.25,238.8888888888889,-3.166666666666667,266.6666666666667,-4C294.44444444444446,-4.833333333333333,305.5555555555556,25.041666666666668,333.33333333333337,24C361.11111111111114,22.958333333333332,372.22222222222223,-9.625,400,-9C427.77777777777777,-8.375,438.8888888888889,24.916666666666668,466.6666666666667,27C494.44444444444446,29.083333333333332,505.5555555555556,-1.708333333333333,533.3333333333334,1C561.1111111111111,3.708333333333333,572.2222222222222,38.958333333333336,600,40C627.7777777777778,41.041666666666664,638.8888888888889,6.416666666666667,666.6666666666667,6C694.4444444444446,5.583333333333333,707.6388888888889,37.166666666666664,733.3333333333334,38C759.0277777777778,38.833333333333336,778.1944444444445,15.833333333333334,790,10" transform="matrix(1,0,0,1,0,532)"></path><path d="M10,10C21.805555555555557,11.041666666666666,40.97222222222223,19.166666666666668,66.66666666666667,15C92.36111111111111,10.833333333333332,105.55555555555557,-12.708333333333332,133.33333333333334,-10C161.11111111111111,-7.291666666666667,172.22222222222223,26.75,200,28C227.77777777777777,29.25,238.8888888888889,-3.166666666666667,266.6666666666667,-4C294.44444444444446,-4.833333333333333,305.5555555555556,25.041666666666668,333.33333333333337,24C361.11111111111114,22.958333333333332,372.22222222222223,-9.625,400,-9C427.77777777777777,-8.375,438.8888888888889,24.916666666666668,466.6666666666667,27C494.44444444444446,29.083333333333332,505.5555555555556,-1.708333333333333,533.3333333333334,1C561.1111111111111,3.708333333333333,572.2222222222222,38.958333333333336,600,40C627.7777777777778,41.041666666666664,638.8888888888889,6.416666666666667,666.6666666666667,6C694.4444444444446,5.583333333333333,707.6388888888889,37.166666666666664,733.3333333333334,38C759.0277777777778,38.833333333333336,778.1944444444445,15.833333333333334,790,10" transform="matrix(1,0,0,1,0,494)"></path><path d="M10,10C21.805555555555557,11.041666666666666,40.97222222222223,19.166666666666668,66.66666666666667,15C92.36111111111111,10.833333333333332,105.55555555555557,-12.708333333333332,133.33333333333334,-10C161.11111111111111,-7.291666666666667,172.22222222222223,26.75,200,28C227.77777777777777,29.25,238.8888888888889,-3.166666666666667,266.6666666666667,-4C294.44444444444446,-4.833333333333333,305.5555555555556,25.041666666666668,333.33333333333337,24C361.11111111111114,22.958333333333332,372.22222222222223,-9.625,400,-9C427.77777777777777,-8.375,438.8888888888889,24.916666666666668,466.6666666666667,27C494.44444444444446,29.083333333333332,505.5555555555556,-1.708333333333333,533.3333333333334,1C561.1111111111111,3.708333333333333,572.2222222222222,38.958333333333336,600,40C627.7777777777778,41.041666666666664,638.8888888888889,6.416666666666667,666.6666666666667,6C694.4444444444446,5.583333333333333,707.6388888888889,37.166666666666664,733.3333333333334,38C759.0277777777778,38.833333333333336,778.1944444444445,15.833333333333334,790,10" transform="matrix(1,0,0,1,0,456)"></path><path d="M10,10C21.805555555555557,11.041666666666666,40.97222222222223,19.166666666666668,66.66666666666667,15C92.36111111111111,10.833333333333332,105.55555555555557,-12.708333333333332,133.33333333333334,-10C161.11111111111111,-7.291666666666667,172.22222222222223,26.75,200,28C227.77777777777777,29.25,238.8888888888889,-3.166666666666667,266.6666666666667,-4C294.44444444444446,-4.833333333333333,305.5555555555556,25.041666666666668,333.33333333333337,24C361.11111111111114,22.958333333333332,372.22222222222223,-9.625,400,-9C427.77777777777777,-8.375,438.8888888888889,24.916666666666668,466.6666666666667,27C494.44444444444446,29.083333333333332,505.5555555555556,-1.708333333333333,533.3333333333334,1C561.1111111111111,3.708333333333333,572.2222222222222,38.958333333333336,600,40C627.7777777777778,41.041666666666664,638.8888888888889,6.416666666666667,666.6666666666667,6C694.4444444444446,5.583333333333333,707.6388888888889,37.166666666666664,733.3333333333334,38C759.0277777777778,38.833333333333336,778.1944444444445,15.833333333333334,790,10" transform="matrix(1,0,0,1,0,418)"></path><path d="M10,10C21.805555555555557,11.041666666666666,40.97222222222223,19.166666666666668,66.66666666666667,15C92.36111111111111,10.833333333333332,105.55555555555557,-12.708333333333332,133.33333333333334,-10C161.11111111111111,-7.291666666666667,172.22222222222223,26.75,200,28C227.77777777777777,29.25,238.8888888888889,-3.166666666666667,266.6666666666667,-4C294.44444444444446,-4.833333333333333,305.5555555555556,25.041666666666668,333.33333333333337,24C361.11111111111114,22.958333333333332,372.22222222222223,-9.625,400,-9C427.77777777777777,-8.375,438.8888888888889,24.916666666666668,466.6666666666667,27C494.44444444444446,29.083333333333332,505.5555555555556,-1.708333333333333,533.3333333333334,1C561.1111111111111,3.708333333333333,572.2222222222222,38.958333333333336,600,40C627.7777777777778,41.041666666666664,638.8888888888889,6.416666666666667,666.6666666666667,6C694.4444444444446,5.583333333333333,707.6388888888889,37.166666666666664,733.3333333333334,38C759.0277777777778,38.833333333333336,778.1944444444445,15.833333333333334,790,10" transform="matrix(1,0,0,1,0,380)"></path><path d="M10,10C21.805555555555557,11.041666666666666,40.97222222222223,19.166666666666668,66.66666666666667,15C92.36111111111111,10.833333333333332,105.55555555555557,-12.708333333333332,133.33333333333334,-10C161.11111111111111,-7.291666666666667,172.22222222222223,26.75,200,28C227.77777777777777,29.25,238.8888888888889,-3.166666666666667,266.6666666666667,-4C294.44444444444446,-4.833333333333333,305.5555555555556,25.041666666666668,333.33333333333337,24C361.11111111111114,22.958333333333332,372.22222222222223,-9.625,400,-9C427.77777777777777,-8.375,438.8888888888889,24.916666666666668,466.6666666666667,27C494.44444444444446,29.083333333333332,505.5555555555556,-1.708333333333333,533.3333333333334,1C561.1111111111111,3.708333333333333,572.2222222222222,38.958333333333336,600,40C627.7777777777778,41.041666666666664,638.8888888888889,6.416666666666667,666.6666666666667,6C694.4444444444446,5.583333333333333,707.6388888888889,37.166666666666664,733.3333333333334,38C759.0277777777778,38.833333333333336,778.1944444444445,15.833333333333334,790,10" transform="matrix(1,0,0,1,0,342)"></path><path d="M10,10C21.805555555555557,11.041666666666666,40.97222222222223,19.166666666666668,66.66666666666667,15C92.36111111111111,10.833333333333332,105.55555555555557,-12.708333333333332,133.33333333333334,-10C161.11111111111111,-7.291666666666667,172.22222222222223,26.75,200,28C227.77777777777777,29.25,238.8888888888889,-3.166666666666667,266.6666666666667,-4C294.44444444444446,-4.833333333333333,305.5555555555556,25.041666666666668,333.33333333333337,24C361.11111111111114,22.958333333333332,372.22222222222223,-9.625,400,-9C427.77777777777777,-8.375,438.8888888888889,24.916666666666668,466.6666666666667,27C494.44444444444446,29.083333333333332,505.5555555555556,-1.708333333333333,533.3333333333334,1C561.1111111111111,3.708333333333333,572.2222222222222,38.958333333333336,600,40C627.7777777777778,41.041666666666664,638.8888888888889,6.416666666666667,666.6666666666667,6C694.4444444444446,5.583333333333333,707.6388888888889,37.166666666666664,733.3333333333334,38C759.0277777777778,38.833333333333336,778.1944444444445,15.833333333333334,790,10" transform="matrix(1,0,0,1,0,304)"></path><path d="M10,10C21.805555555555557,11.041666666666666,40.97222222222223,19.166666666666668,66.66666666666667,15C92.36111111111111,10.833333333333332,105.55555555555557,-12.708333333333332,133.33333333333334,-10C161.11111111111111,-7.291666666666667,172.22222222222223,26.75,200,28C227.77777777777777,29.25,238.8888888888889,-3.166666666666667,266.6666666666667,-4C294.44444444444446,-4.833333333333333,305.5555555555556,25.041666666666668,333.33333333333337,24C361.11111111111114,22.958333333333332,372.22222222222223,-9.625,400,-9C427.77777777777777,-8.375,438.8888888888889,24.916666666666668,466.6666666666667,27C494.44444444444446,29.083333333333332,505.5555555555556,-1.708333333333333,533.3333333333334,1C561.1111111111111,3.708333333333333,572.2222222222222,38.958333333333336,600,40C627.7777777777778,41.041666666666664,638.8888888888889,6.416666666666667,666.6666666666667,6C694.4444444444446,5.583333333333333,707.6388888888889,37.166666666666664,733.3333333333334,38C759.0277777777778,38.833333333333336,778.1944444444445,15.833333333333334,790,10" transform="matrix(1,0,0,1,0,266)"></path><path d="M10,10C21.805555555555557,11.041666666666666,40.97222222222223,19.166666666666668,66.66666666666667,15C92.36111111111111,10.833333333333332,105.55555555555557,-12.708333333333332,133.33333333333334,-10C161.11111111111111,-7.291666666666667,172.22222222222223,26.75,200,28C227.77777777777777,29.25,238.8888888888889,-3.166666666666667,266.6666666666667,-4C294.44444444444446,-4.833333333333333,305.5555555555556,25.041666666666668,333.33333333333337,24C361.11111111111114,22.958333333333332,372.22222222222223,-9.625,400,-9C427.77777777777777,-8.375,438.8888888888889,24.916666666666668,466.6666666666667,27C494.44444444444446,29.083333333333332,505.5555555555556,-1.708333333333333,533.3333333333334,1C561.1111111111111,3.708333333333333,572.2222222222222,38.958333333333336,600,40C627.7777777777778,41.041666666666664,638.8888888888889,6.416666666666667,666.6666666666667,6C694.4444444444446,5.583333333333333,707.6388888888889,37.166666666666664,733.3333333333334,38C759.0277777777778,38.833333333333336,778.1944444444445,15.833333333333334,790,10" transform="matrix(1,0,0,1,0,228)"></path><path d="M10,10C21.805555555555557,11.041666666666666,40.97222222222223,19.166666666666668,66.66666666666667,15C92.36111111111111,10.833333333333332,105.55555555555557,-12.708333333333332,133.33333333333334,-10C161.11111111111111,-7.291666666666667,172.22222222222223,26.75,200,28C227.77777777777777,29.25,238.8888888888889,-3.166666666666667,266.6666666666667,-4C294.44444444444446,-4.833333333333333,305.5555555555556,25.041666666666668,333.33333333333337,24C361.11111111111114,22.958333333333332,372.22222222222223,-9.625,400,-9C427.77777777777777,-8.375,438.8888888888889,24.916666666666668,466.6666666666667,27C494.44444444444446,29.083333333333332,505.5555555555556,-1.708333333333333,533.3333333333334,1C561.1111111111111,3.708333333333333,572.2222222222222,38.958333333333336,600,40C627.7777777777778,41.041666666666664,638.8888888888889,6.416666666666667,666.6666666666667,6C694.4444444444446,5.583333333333333,707.6388888888889,37.166666666666664,733.3333333333334,38C759.0277777777778,38.833333333333336,778.1944444444445,15.833333333333334,790,10" transform="matrix(1,0,0,1,0,190)"></path><path d="M10,10C21.805555555555557,11.041666666666666,40.97222222222223,19.166666666666668,66.66666666666667,15C92.36111111111111,10.833333333333332,105.55555555555557,-12.708333333333332,133.33333333333334,-10C161.11111111111111,-7.291666666666667,172.22222222222223,26.75,200,28C227.77777777777777,29.25,238.8888888888889,-3.166666666666667,266.6666666666667,-4C294.44444444444446,-4.833333333333333,305.5555555555556,25.041666666666668,333.33333333333337,24C361.11111111111114,22.958333333333332,372.22222222222223,-9.625,400,-9C427.77777777777777,-8.375,438.8888888888889,24.916666666666668,466.6666666666667,27C494.44444444444446,29.083333333333332,505.5555555555556,-1.708333333333333,533.3333333333334,1C561.1111111111111,3.708333333333333,572.2222222222222,38.958333333333336,600,40C627.7777777777778,41.041666666666664,638.8888888888889,6.416666666666667,666.6666666666667,6C694.4444444444446,5.583333333333333,707.6388888888889,37.166666666666664,733.3333333333334,38C759.0277777777778,38.833333333333336,778.1944444444445,15.833333333333334,790,10" transform="matrix(1,0,0,1,0,152)"></path><path d="M10,10C21.805555555555557,11.041666666666666,40.97222222222223,19.166666666666668,66.66666666666667,15C92.36111111111111,10.833333333333332,105.55555555555557,-12.708333333333332,133.33333333333334,-10C161.11111111111111,-7.291666666666667,172.22222222222223,26.75,200,28C227.77777777777777,29.25,238.8888888888889,-3.166666666666667,266.6666666666667,-4C294.44444444444446,-4.833333333333333,305.5555555555556,25.041666666666668,333.33333333333337,24C361.11111111111114,22.958333333333332,372.22222222222223,-9.625,400,-9C427.77777777777777,-8.375,438.8888888888889,24.916666666666668,466.6666666666667,27C494.44444444444446,29.083333333333332,505.5555555555556,-1.708333333333333,533.3333333333334,1C561.1111111111111,3.708333333333333,572.2222222222222,38.958333333333336,600,40C627.7777777777778,41.041666666666664,638.8888888888889,6.416666666666667,666.6666666666667,6C694.4444444444446,5.583333333333333,707.6388888888889,37.166666666666664,733.3333333333334,38C759.0277777777778,38.833333333333336,778.1944444444445,15.833333333333334,790,10" transform="matrix(1,0,0,1,0,114)"></path><path d="M10,10C21.805555555555557,11.041666666666666,40.97222222222223,19.166666666666668,66.66666666666667,15C92.36111111111111,10.833333333333332,105.55555555555557,-12.708333333333332,133.33333333333334,-10C161.11111111111111,-7.291666666666667,172.22222222222223,26.75,200,28C227.77777777777777,29.25,238.8888888888889,-3.166666666666667,266.6666666666667,-4C294.44444444444446,-4.833333333333333,305.5555555555556,25.041666666666668,333.33333333333337,24C361.11111111111114,22.958333333333332,372.22222222222223,-9.625,400,-9C427.77777777777777,-8.375,438.8888888888889,24.916666666666668,466.6666666666667,27C494.44444444444446,29.083333333333332,505.5555555555556,-1.708333333333333,533.3333333333334,1C561.1111111111111,3.708333333333333,572.2222222222222,38.958333333333336,600,40C627.7777777777778,41.041666666666664,638.8888888888889,6.416666666666667,666.6666666666667,6C694.4444444444446,5.583333333333333,707.6388888888889,37.166666666666664,733.3333333333334,38C759.0277777777778,38.833333333333336,778.1944444444445,15.833333333333334,790,10" transform="matrix(1,0,0,1,0,76)"></path><path d="M10,10C21.805555555555557,11.041666666666666,40.97222222222223,19.166666666666668,66.66666666666667,15C92.36111111111111,10.833333333333332,105.55555555555557,-12.708333333333332,133.33333333333334,-10C161.11111111111111,-7.291666666666667,172.22222222222223,26.75,200,28C227.77777777777777,29.25,238.8888888888889,-3.166666666666667,266.6666666666667,-4C294.44444444444446,-4.833333333333333,305.5555555555556,25.041666666666668,333.33333333333337,24C361.11111111111114,22.958333333333332,372.22222222222223,-9.625,400,-9C427.77777777777777,-8.375,438.8888888888889,24.916666666666668,466.6666666666667,27C494.44444444444446,29.083333333333332,505.5555555555556,-1.708333333333333,533.3333333333334,1C561.1111111111111,3.708333333333333,572.2222222222222,38.958333333333336,600,40C627.7777777777778,41.041666666666664,638.8888888888889,6.416666666666667,666.6666666666667,6C694.4444444444446,5.583333333333333,707.6388888888889,37.166666666666664,733.3333333333334,38C759.0277777777778,38.833333333333336,778.1944444444445,15.833333333333334,790,10" transform="matrix(1,0,0,1,0,38)"></path></g></svg>